<svg height="512" viewBox="0 0 64 64" width="512" xmlns="http://www.w3.org/2000/svg"><g id="Robot_Controller-2" data-name="Robot Controller"><rect fill="#5aaae7" height="58" rx="4" width="36" x="14" y="3"/><path d="m41 41a2.015 2.015 0 0 1 -2 2h-10a2.006 2.006 0 0 1 -2-2h10a2.015 2.015 0 0 0 2-2 2.006 2.006 0 0 1 2 2z" fill="#3d9ae2"/><path d="m41 21v2a2.006 2.006 0 0 1 -2 2h-2l2 4v7l-.55 1.64a1.979 1.979 0 0 0 -1.45-.64h-1l1-3v-7l-2-4h2a2.006 2.006 0 0 0 2-2v-2a2.006 2.006 0 0 1 2 2z" fill="#3d9ae2"/><path d="m40.65 56.53a8.372 8.372 0 0 0 -.79-1.9l1.33-1.99-2.83-2.83-1.99 1.33a8.372 8.372 0 0 0 -1.9-.79l-.47-2.35h-4l-.47 2.35a8.372 8.372 0 0 0 -1.9.79l-1.99-1.33-2.83 2.83 1.33 1.99a8.372 8.372 0 0 0 -.79 1.9l-2.35.47v4h22v-4z" fill="#ff9811"/><path d="m37 37a2.006 2.006 0 0 1 2 2 2.015 2.015 0 0 1 -2 2h-10a2.006 2.006 0 0 1 -2-2 2.015 2.015 0 0 1 2-2z" fill="#787680"/><path d="m37 27v7l-1 3h-8l-1-3v-7l2-4h6z" fill="#898890"/><circle cx="32" cy="29" fill="#ffd422" r="2"/><path d="m35 23h-8a2.006 2.006 0 0 1 -2-2v-2a2.006 2.006 0 0 1 2-2h10a2.006 2.006 0 0 1 2 2v2a2.006 2.006 0 0 1 -2 2z" fill="#acabb1"/><path d="m37 59a5.106 5.106 0 0 1 -.41 2h-9.18a5.106 5.106 0 0 1 -.41-2 5 5 0 0 1 10 0z" fill="#ffd422"/><g fill="#ff6243"><circle cx="59" cy="43" r="2"/><circle cx="59" cy="29" r="2"/><circle cx="59" cy="15" r="2"/><circle cx="5" cy="43" r="2"/><circle cx="5" cy="29" r="2"/><circle cx="5" cy="15" r="2"/></g><path d="m40 3v3a1 1 0 0 1 -1 1h-14a1 1 0 0 1 -1-1v-3z" fill="#ff9811"/><path d="m36 25h-8l1-2h6z" fill="#787680"/><path d="m51 7a5.006 5.006 0 0 0 -5-5h-28a5.006 5.006 0 0 0 -5 5v7h-3v2h3v12h-3v2h3v12h-3v2h3v13a5.006 5.006 0 0 0 5 5h28a5.006 5.006 0 0 0 5-5v-13h3v-2h-3v-12h3v-2h-3v-12h3v-2h-3zm-26-3h14v2h-14zm-.029 50.074-.871-1.307 1.67-1.669 1.307.874a1 1 0 0 0 1.056.034 7.378 7.378 0 0 1 1.673-.694 1 1 0 0 0 .708-.766l.306-1.546h2.36l.309 1.546a1 1 0 0 0 .708.766 7.378 7.378 0 0 1 1.673.694 1 1 0 0 0 1.056-.034l1.307-.874 1.67 1.669-.874 1.307a1 1 0 0 0 -.035 1.055 7.4 7.4 0 0 1 .694 1.674 1 1 0 0 0 .766.707l1.546.31v2.18h-4.09a6.075 6.075 0 0 0 .09-1 6 6 0 0 0 -12 0 6.075 6.075 0 0 0 .09 1h-4.09v-2.18l1.546-.31a1 1 0 0 0 .766-.707 7.4 7.4 0 0 1 .694-1.674 1 1 0 0 0 -.035-1.055zm3.029 4.926a4 4 0 0 1 8 0 4.068 4.068 0 0 1 -.14 1h-7.72a4.068 4.068 0 0 1 -.14-1zm21-31h-2v2h2v12h-2.586l-1.707-1.707-1.414 1.414 2 2a1 1 0 0 0 .707.293h3v13a3 3 0 0 1 -3 3h-2v-3a1 1 0 0 0 -.8-.98l-1.771-.355a9.291 9.291 0 0 0 -.4-.974l1-1.5a1 1 0 0 0 -.124-1.263l-2.83-2.83a1 1 0 0 0 -1.262-.124l-1.495 1a9.623 9.623 0 0 0 -.975-.4l-.363-1.774a1 1 0 0 0 -.98-.8h-4a1 1 0 0 0 -.98.8l-.355 1.771a9.623 9.623 0 0 0 -.975.4l-1.5-1a1 1 0 0 0 -1.262.124l-2.83 2.83a1 1 0 0 0 -.124 1.263l1 1.5a9.291 9.291 0 0 0 -.4.974l-1.774.358a1 1 0 0 0 -.8.98v3h-2a3 3 0 0 1 -3-3v-13h3a1 1 0 0 0 .707-.293l3-3-1.414-1.414-2.707 2.707h-2.586v-12h2v-2h-2v-12h2.586l2.707 2.707 1.414-1.414-3-3a1 1 0 0 0 -.707-.293h-3v-7a3 3 0 0 1 3-3h5v2a2 2 0 0 0 2 2h14a2 2 0 0 0 2-2v-2h5a3 3 0 0 1 3 3v7h-3a1 1 0 0 0 -.707.293l-2 2 1.414 1.414 1.707-1.707h2.586z"/><path d="m59 18a3 3 0 1 0 -3-3 3 3 0 0 0 3 3zm0-4a1 1 0 1 1 -1 1 1 1 0 0 1 1-1z"/><path d="m59 40a3 3 0 1 0 3 3 3 3 0 0 0 -3-3zm0 4a1 1 0 1 1 1-1 1 1 0 0 1 -1 1z"/><path d="m59 26a3 3 0 1 0 3 3 3 3 0 0 0 -3-3zm0 4a1 1 0 1 1 1-1 1 1 0 0 1 -1 1z"/><path d="m5 12a3 3 0 1 0 3 3 3 3 0 0 0 -3-3zm0 4a1 1 0 1 1 1-1 1 1 0 0 1 -1 1z"/><path d="m5 40a3 3 0 1 0 3 3 3 3 0 0 0 -3-3zm0 4a1 1 0 1 1 1-1 1 1 0 0 1 -1 1z"/><path d="m5 26a3 3 0 1 0 3 3 3 3 0 0 0 -3-3zm0 4a1 1 0 1 1 1-1 1 1 0 0 1 -1 1z"/><path d="m32 32a3 3 0 1 0 -3-3 3 3 0 0 0 3 3zm0-4a1 1 0 1 1 -1 1 1 1 0 0 1 1-1z"/><path d="m28 19h2v2h-2z"/><path d="m34 19h2v2h-2z"/><path d="m44 22a1 1 0 0 1 -1-1h-2a3 3 0 0 0 2 2.816v.184a3 3 0 0 1 -3 3h-2a1 1 0 0 0 -.1-.447l-1.282-2.553h.382a3 3 0 0 0 3-3v-2a3 3 0 0 0 -3-3v-3h-2v3h-6v-3h-2v3a3 3 0 0 0 -3 3v2a3 3 0 0 0 3 3h.382l-1.277 2.553a1 1 0 0 0 -.105.447h-2a3 3 0 0 1 -3-3v-.184a3 3 0 0 0 2-2.816h-2a1 1 0 0 1 -2 0h-2a3 3 0 0 0 2 2.816v.184a5.006 5.006 0 0 0 5 5h2v5a1 1 0 0 0 .052.316l.574 1.722a2.992 2.992 0 0 0 .374 5.962h10a2.992 2.992 0 0 0 .374-5.962l.574-1.722a1 1 0 0 0 .052-.316v-5h2a5.006 5.006 0 0 0 5-5v-.184a3 3 0 0 0 2-2.816h-2a1 1 0 0 1 -1 1zm-18-1v-2a1 1 0 0 1 1-1h10a1 1 0 0 1 1 1v2a1 1 0 0 1 -1 1h-10a1 1 0 0 1 -1-1zm8.382 3 1.618 3.236v6.6l-.721 2.164h-6.558l-.721-2.162v-6.6l1.618-3.238zm3.618 15a1 1 0 0 1 -1 1h-10a1 1 0 0 1 0-2h10a1 1 0 0 1 1 1z"/></g></svg>