<svg height="512pt" viewBox="0 0 512.001 512" width="512pt" xmlns="http://www.w3.org/2000/svg"><path d="m186.277344 421.035156h138.875v41.859375h-138.875zm0 0" fill="#5a5a5a"/><path d="m478.453125 421.035156h-445.472656c-14.078125 0-25.488281-11.414062-25.488281-25.488281v-362.566406c0-14.074219 11.410156-25.488281 25.488281-25.488281h445.472656c14.074219 0 25.484375 11.414062 25.484375 25.488281v362.566406c0 14.074219-11.410156 25.488281-25.484375 25.488281zm0 0" fill="#ffd86e"/><path d="m503.941406 32.984375v362.5625c0 14.078125-11.410156 25.488281-25.484375 25.488281h-31.132812c14.078125 0 25.484375-11.410156 25.484375-25.488281v-362.5625c0-14.078125-11.40625-25.488281-25.484375-25.488281h31.132812c14.074219 0 25.484375 11.410156 25.484375 25.488281zm0 0" fill="#ffb509"/><path d="m503.9375 359.632812h-496.445312v35.914063c0 14.074219 11.410156 25.488281 25.488281 25.488281h445.472656c14.074219 0 25.484375-11.414062 25.484375-25.488281zm0 0" fill="#838383"/><path d="m503.941406 359.628906v35.917969c0 14.078125-11.410156 25.488281-25.484375 25.488281h-31.132812c14.078125 0 25.484375-11.410156 25.484375-25.488281v-35.917969zm0 0" fill="#5a5a5a"/><path d="m504.507812 94.4375h-496.460937v-61.460938c0-14.074218 11.410156-25.484374 25.484375-25.484374h445.492188c14.074218 0 25.484374 11.410156 25.484374 25.484374zm0 0" fill="#acacac"/><path d="m504.511719 32.972656v61.464844h-31.703125v-61.464844c0-14.066406-11.40625-25.476562-25.484375-25.476562h31.699219c14.078124 0 25.488281 11.410156 25.488281 25.476562zm0 0" fill="#9c9c9c"/><path d="m69.757812 50.753906c0 8.003906-6.488281 14.496094-14.496093 14.496094-8.007813 0-14.496094-6.492188-14.496094-14.496094 0-8.007812 6.488281-14.5 14.496094-14.5 8.007812 0 14.496093 6.492188 14.496093 14.5zm0 0" fill="#ff6b81"/><path d="m125.746094 50.753906c0 8.003906-6.492188 14.496094-14.496094 14.496094-8.007812 0-14.5-6.492188-14.5-14.496094 0-8.007812 6.492188-14.5 14.5-14.5 8.003906 0 14.496094 6.492188 14.496094 14.5zm0 0" fill="#ffd86e"/><path d="m181.730469 50.753906c0 8.003906-6.488281 14.496094-14.496094 14.496094-8.003906 0-14.496094-6.492188-14.496094-14.496094 0-8.007812 6.492188-14.5 14.496094-14.5 8.007813 0 14.496094 6.492188 14.496094 14.5zm0 0" fill="#80e0dc"/><path d="m69.753906 50.757812c0 8.003907-6.484375 14.488282-14.488281 14.488282-3.875 0-7.402344-1.519532-10-4.007813 7.84375-.167969 14.15625-6.585937 14.15625-14.476562 0-4.136719-1.726563-7.851563-4.496094-10.492188.113281-.007812.230469-.007812.339844-.007812 8.003906 0 14.488281 6.484375 14.488281 14.496093zm0 0" fill="#ff435f"/><path d="m125.742188 50.757812c0 8.003907-6.484376 14.488282-14.496094 14.488282-3.875 0-7.394532-1.519532-10-4.007813 7.851562-.167969 14.167968-6.585937 14.167968-14.476562 0-4.136719-1.730468-7.851563-4.496093-10.492188.109375-.007812.21875-.007812.328125-.007812 8.011718 0 14.496094 6.484375 14.496094 14.496093zm0 0" fill="#ffb509"/><path d="m181.734375 50.757812c0 8.003907-6.496094 14.488282-14.5 14.488282-3.875 0-7.390625-1.519532-10-4.007813 7.855469-.167969 14.15625-6.585937 14.15625-14.476562 0-4.136719-1.726563-7.851563-4.496094-10.492188.113281-.007812.230469-.007812.339844-.007812 8.003906 0 14.5 6.484375 14.5 14.496093zm0 0" fill="#00a8b0"/><path d="m370.152344 503.953125h-228.875c-2.757813 0-4.996094-2.234375-4.996094-4.992187v-16.191407c0-10.976562 8.902344-19.875 19.878906-19.875h199.113282c10.976562 0 19.875 8.898438 19.875 19.875v16.191407c0 2.757812-2.234376 4.992187-4.996094 4.992187zm0 0" fill="#838383"/><path d="m375.148438 482.769531v16.195313c0 2.757812-2.238282 4.992187-4.996094 4.992187h-17.632813v-21.1875c0-10.972656-8.902343-19.875-19.871093-19.875h22.628906c10.972656 0 19.871094 8.898438 19.871094 19.875zm0 0" fill="#5a5a5a"/><path d="m8.046875 94.4375h246.671875v264.652344h-246.671875zm0 0" fill="#c9f0ff"/><path d="m231.347656 94.4375h23.371094v264.652344h-23.371094zm0 0" fill="#9ae7fd"/><path d="m453.269531 267.285156h-146.570312c-6.554688 0-11.871094-5.316406-11.871094-11.871094v-119.242187c0-6.554687 5.316406-11.871094 11.871094-11.871094h146.566406c6.554687 0 11.871094 5.316407 11.871094 11.871094v119.242187c0 6.554688-5.3125 11.871094-11.867188 11.871094zm0 0" fill="#c9f0ff"/><path d="m465.136719 136.167969v119.246093c0 6.550782-5.316407 11.867188-11.867188 11.867188h-19.394531c6.558594 0 11.875-5.316406 11.875-11.867188v-119.246093c0-6.558594-5.316406-11.867188-11.875-11.867188h19.394531c6.550781 0 11.867188 5.308594 11.867188 11.867188zm0 0" fill="#9ae7fd"/><path d="m416.839844 190.207031-24.273438 24.261719-31.953125-36.011719c-1.671875-1.882812-4.582031-1.96875-6.363281-.191406l-59.421875 59.394531v17.753906c0 6.554688 5.3125 11.867188 11.867187 11.867188h146.570313c6.554687 0 11.871094-5.3125 11.871094-11.867188v-17.753906l-41.9375-47.261718c-1.667969-1.882813-4.578125-1.96875-6.359375-.191407zm0 0" fill="#80e0dc"/><path d="m465.136719 237.660156v17.757813c0 6.546875-5.316407 11.867187-11.867188 11.867187h-19.394531c6.558594 0 11.875-5.320312 11.875-11.867187v-39.609375zm0 0" fill="#00a8b0"/><path d="m55.261719 28.761719c-12.125 0-21.988281 9.867187-21.988281 21.988281 0 12.125 9.863281 21.992188 21.988281 21.992188s21.992187-9.867188 21.992187-21.992188c0-12.121094-9.867187-21.988281-21.992187-21.988281zm0 28.992187c-3.859375 0-7.003907-3.140625-7.003907-7.003906 0-3.859375 3.144532-7 7.003907-7 3.863281 0 7.003906 3.140625 7.003906 7 0 3.863281-3.140625 7.003906-7.003906 7.003906zm0 0"/><path d="m111.25 28.761719c-12.125 0-21.992188 9.867187-21.992188 21.988281 0 12.125 9.867188 21.992188 21.992188 21.992188s21.988281-9.867188 21.988281-21.992188c0-12.121094-9.863281-21.988281-21.988281-21.988281zm0 28.992187c-3.863281 0-7.003906-3.140625-7.003906-7.003906 0-3.859375 3.140625-7 7.003906-7 3.859375 0 7.003906 3.140625 7.003906 7 0 3.863281-3.144531 7.003906-7.003906 7.003906zm0 0"/><path d="m167.234375 28.761719c-12.125 0-21.988281 9.867187-21.988281 21.988281 0 12.125 9.863281 21.992188 21.988281 21.992188s21.992187-9.867188 21.992187-21.992188c0-12.121094-9.867187-21.988281-21.992187-21.988281zm0 28.992187c-3.859375 0-7.003906-3.140625-7.003906-7.003906 0-3.859375 3.144531-7 7.003906-7 3.863281 0 7.003906 3.140625 7.003906 7 0 3.863281-3.140625 7.003906-7.003906 7.003906zm0 0"/><path d="m503.9375 147.824219c4.140625 0 7.496094-3.355469 7.496094-7.496094l.566406-107.351563c0-18.183593-14.792969-32.976562-32.976562-32.976562h-446.042969c-18.183594 0-32.980469 14.796875-32.980469 32.980469v362.566406c0 16.480469 12.152344 30.175781 27.964844 32.597656 1.636718.253907 3.3125.382813 5.015625.382813h145.804687v26.875h-22.625c-15.089844 0-27.371094 12.277344-27.371094 27.367187v16.191407c0 6.886718 5.601563 12.488281 12.488282 12.488281h35.734375c4.136719 0 7.492187-3.355469 7.492187-7.496094 0-4.136719-3.355468-7.492187-7.492187-7.492187h-33.234375v-13.691407c0-6.828125 5.554687-12.382812 12.382812-12.382812h199.113282c6.828124 0 12.382812 5.554687 12.382812 12.382812v13.691407h-144.125c-4.136719 0-7.492188 3.355468-7.492188 7.492187 0 4.140625 3.355469 7.496094 7.492188 7.496094h146.621094c6.886718 0 12.488281-5.601563 12.488281-12.488281v-16.191407c0-15.089843-12.277344-27.367187-27.371094-27.367187h-22.625v-26.875h145.808594c1.703125 0 3.378906-.128906 5.011719-.382813 15.816406-2.421875 27.964844-16.117187 27.964844-32.597656v-208.757813c0-4.140624-3.351563-7.496093-7.492188-7.496093-4.136719 0-7.492188 3.355469-7.492188 7.496093v165.347657h-234.234374v-250.207031h234.234374v38.398437c0 4.140625 3.355469 7.496094 7.492188 7.496094zm-488.398438-45.894531h231.683594v249.667968h-231.683594zm302.121094 353.472656h-123.886718v-26.875h123.886718zm178.785156-88.277344v28.421875c0 9.300781-7.09375 16.976563-16.15625 17.902344-.605468.058593-1.214843.089843-1.835937.089843h-445.472656c-.621094 0-1.234375-.03125-1.835938-.089843-9.0625-.925781-16.15625-8.601563-16.15625-17.902344v-28.421875zm-241.726562-280.183594h-239.179688v-53.964844c0-9.917968 8.070313-17.988281 17.992188-17.988281h444.921875c9.921875 0 17.992187 8.070313 17.992187 17.992188v53.960937zm0 0"/><path d="m46.90625 131.792969h37.964844c4.136718 0 7.492187-3.351563 7.492187-7.492188 0-4.136719-3.355469-7.492187-7.492187-7.492187h-37.964844c-4.140625 0-7.496094 3.355468-7.496094 7.492187 0 4.140625 3.355469 7.492188 7.496094 7.492188zm0 0"/><path d="m110.847656 131.792969h17.984375c4.136719 0 7.492188-3.351563 7.492188-7.492188 0-4.136719-3.355469-7.492187-7.492188-7.492187h-17.984375c-4.140625 0-7.492187 3.355468-7.492187 7.492187 0 4.140625 3.351562 7.492188 7.492187 7.492188zm0 0"/><path d="m103.851562 143.257812h-24.976562c-4.136719 0-7.492188 3.355469-7.492188 7.496094 0 4.136719 3.355469 7.492188 7.492188 7.492188h24.976562c4.140626 0 7.496094-3.355469 7.496094-7.492188 0-4.140625-3.355468-7.496094-7.496094-7.496094zm0 0"/><path d="m221.746094 170.65625h-24.976563c-4.136719 0-7.492187 3.355469-7.492187 7.492188 0 4.136718 3.355468 7.492187 7.492187 7.492187h24.976563c4.140625 0 7.492187-3.355469 7.492187-7.492187 0-4.136719-3.351562-7.492188-7.492187-7.492188zm0 0"/><path d="m119.339844 150.753906c0 4.136719 3.355468 7.492188 7.492187 7.492188h59.945313c4.140625 0 7.496094-3.355469 7.496094-7.492188 0-4.140625-3.355469-7.496094-7.496094-7.496094h-59.945313c-4.136719 0-7.492187 3.355469-7.492187 7.496094zm0 0"/><path d="m95.359375 178.148438c0 4.136718 3.355469 7.492187 7.496094 7.492187h12.988281c4.136719 0 7.492188-3.355469 7.492188-7.492187 0-4.136719-3.355469-7.492188-7.492188-7.492188h-12.988281c-4.140625 0-7.496094 3.355469-7.496094 7.492188zm0 0"/><path d="m173.789062 185.640625c4.140626 0 7.496094-3.355469 7.496094-7.492187 0-4.136719-3.355468-7.492188-7.496094-7.492188h-35.964843c-4.140625 0-7.496094 3.355469-7.496094 7.492188 0 4.136718 3.355469 7.492187 7.496094 7.492187zm0 0"/><path d="m92.363281 275.269531c0-4.140625-3.355469-7.492187-7.492187-7.492187h-37.964844c-4.140625 0-7.496094 3.351562-7.496094 7.492187 0 4.136719 3.355469 7.492188 7.496094 7.492188h37.964844c4.136718 0 7.492187-3.355469 7.492187-7.492188zm0 0"/><path d="m110.847656 267.777344c-4.140625 0-7.492187 3.351562-7.492187 7.492187 0 4.136719 3.351562 7.492188 7.492187 7.492188h17.984375c4.136719 0 7.492188-3.355469 7.492188-7.492188 0-4.140625-3.355469-7.492187-7.492188-7.492187zm0 0"/><path d="m111.347656 301.71875c0-4.136719-3.355468-7.492188-7.496094-7.492188h-24.976562c-4.136719 0-7.492188 3.355469-7.492188 7.492188 0 4.140625 3.355469 7.496094 7.492188 7.496094h24.976562c4.140626 0 7.496094-3.355469 7.496094-7.496094zm0 0"/><path d="m115.84375 321.625h-12.988281c-4.140625 0-7.496094 3.351562-7.496094 7.492188 0 4.136718 3.355469 7.492187 7.496094 7.492187h12.988281c4.136719 0 7.492188-3.355469 7.492188-7.492187 0-4.140626-3.355469-7.492188-7.492188-7.492188zm0 0"/><path d="m221.746094 321.625h-24.976563c-4.136719 0-7.492187 3.351562-7.492187 7.492188 0 4.136718 3.355468 7.492187 7.492187 7.492187h24.976563c4.140625 0 7.492187-3.355469 7.492187-7.492187 0-4.140626-3.351562-7.492188-7.492187-7.492188zm0 0"/><path d="m194.273438 301.71875c0-4.136719-3.355469-7.492188-7.496094-7.492188h-59.945313c-4.136719 0-7.492187 3.355469-7.492187 7.492188 0 4.140625 3.355468 7.496094 7.492187 7.496094h59.945313c4.140625 0 7.496094-3.355469 7.496094-7.496094zm0 0"/><path d="m173.789062 321.625h-35.964843c-4.140625 0-7.496094 3.351562-7.496094 7.492188 0 4.136718 3.355469 7.492187 7.496094 7.492187h35.964843c4.140626 0 7.496094-3.355469 7.496094-7.492187 0-4.140626-3.355468-7.492188-7.496094-7.492188zm0 0"/><path d="m46.90625 219.976562h20.980469c4.136719 0 7.492187-3.355468 7.492187-7.492187 0-4.140625-3.355468-7.492187-7.492187-7.492187h-20.980469c-4.140625 0-7.496094 3.351562-7.496094 7.492187 0 4.136719 3.355469 7.492187 7.496094 7.492187zm0 0"/><path d="m173.289062 212.484375c0-4.140625-3.351562-7.492187-7.492187-7.492187h-76.929687c-4.136719 0-7.492188 3.351562-7.492188 7.492187 0 4.136719 3.355469 7.492187 7.492188 7.492187h76.929687c4.140625 0 7.492187-3.355468 7.492187-7.492187zm0 0"/><path d="m159.304688 238.933594c0-4.136719-3.355469-7.492188-7.496094-7.492188h-72.933594c-4.136719 0-7.492188 3.355469-7.492188 7.492188 0 4.140625 3.355469 7.496094 7.492188 7.496094h72.933594c4.140625 0 7.496094-3.355469 7.496094-7.496094zm0 0"/><path d="m172.792969 246.429688h13.984375c4.140625 0 7.496094-3.355469 7.496094-7.496094 0-4.136719-3.355469-7.492188-7.496094-7.492188h-13.984375c-4.140625 0-7.496094 3.355469-7.496094 7.492188 0 4.140625 3.355469 7.496094 7.496094 7.496094zm0 0"/><path d="m343.015625 289.652344h-47.953125c-4.140625 0-7.496094 3.355468-7.496094 7.492187 0 4.140625 3.355469 7.492188 7.496094 7.492188h47.953125c4.140625 0 7.496094-3.351563 7.496094-7.492188 0-4.136719-3.355469-7.492187-7.496094-7.492187zm0 0"/><path d="m464.90625 289.652344h-94.914062c-4.136719 0-7.492188 3.355468-7.492188 7.492187 0 4.140625 3.355469 7.492188 7.492188 7.492188h94.914062c4.140625 0 7.496094-3.351563 7.496094-7.492188 0-4.136719-3.355469-7.492187-7.496094-7.492187zm0 0"/><path d="m343.015625 318.625h-47.953125c-4.140625 0-7.496094 3.355469-7.496094 7.496094 0 4.136718 3.355469 7.492187 7.496094 7.492187h47.953125c4.140625 0 7.496094-3.355469 7.496094-7.492187 0-4.140625-3.355469-7.496094-7.496094-7.496094zm0 0"/><path d="m464.90625 318.625h-94.914062c-4.136719 0-7.492188 3.355469-7.492188 7.496094 0 4.136718 3.355469 7.492187 7.492188 7.492187h94.914062c4.140625 0 7.496094-3.355469 7.496094-7.492187 0-4.140625-3.355469-7.496094-7.496094-7.496094zm0 0"/><path d="m472.628906 136.171875c0-10.675781-8.683594-19.363281-19.359375-19.363281h-146.570312c-10.675781 0-19.363281 8.6875-19.363281 19.363281v101.484375.007812 17.75c0 10.675782 8.6875 19.363282 19.363281 19.363282h146.570312c10.675781 0 19.359375-8.6875 19.359375-19.363282zm-14.984375 119.242187c0 2.414063-1.964843 4.375-4.375 4.375h-146.570312c-2.414063 0-4.375-1.960937-4.375-4.375v-14.648437l54.882812-54.855469 37.878907 42.6875c2.746093 3.097656 7.484374 3.378906 10.578124.632813 3.097657-2.746094 3.378907-7.480469.632813-10.578125l-3.4375-3.871094 16.9375-16.929688 37.847656 42.65625zm0-37.488281-28.839843-32.5c-2.160157-2.433593-5.265626-3.886719-8.519532-3.984375-3.269531-.09375-6.441406 1.167969-8.742187 3.46875l-18.648438 18.636719-26.679687-30.0625c-2.160156-2.4375-5.265625-3.890625-8.519532-3.984375-3.25-.089844-6.441406 1.164062-8.742187 3.464844l-46.628906 46.609375v-83.402344c0-2.414063 1.960937-4.378906 4.375-4.378906h146.570312c2.414063 0 4.375 1.964843 4.375 4.378906zm0 0"/></svg>