<?xml version="1.0"?>
<svg xmlns="http://www.w3.org/2000/svg" xmlns:xlink="http://www.w3.org/1999/xlink" version="1.1" id="Capa_1" x="0px" y="0px" viewBox="0 0 512 512" style="enable-background:new 0 0 512 512;" xml:space="preserve" width="512px" height="512px" class=""><g><path style="fill:#ECF0F1;" d="M475.733,503.467H36.267c-15.317,0-27.733-12.416-27.733-27.733v-364.8h494.933v364.8  C503.467,491.051,491.051,503.467,475.733,503.467z" data-original="#ECF0F1" class=""/><path style="fill:#687492;" d="M503.467,110.933H8.533V36.267c0-15.317,12.416-27.733,27.733-27.733h439.467  c15.317,0,27.733,12.416,27.733,27.733V110.933z" data-original="#687492" class=""/><rect x="42.667" y="42.667" style="fill:#E64C3C;" width="34.133" height="34.133" data-original="#E64C3C"/><rect x="110.933" y="42.667" style="fill:#F0C419;" width="34.133" height="34.133" data-original="#F0C419"/><rect x="179.2" y="42.667" style="fill:#24AE5F;" width="34.133" height="34.133" data-original="#24AE5F"/><rect x="247.467" y="110.933" style="fill:#BDC3C7;" width="17.067" height="392.533" data-original="#BDC3C7"/><rect x="290.133" y="153.6" style="fill:#E64C3C;" width="179.2" height="136.533" data-original="#E64C3C"/><rect x="290.133" y="324.267" style="fill:#8697CB;" width="179.2" height="136.533" data-original="#8697CB"/><g>
	<path style="fill:#FFFFFF;" d="M441.233,386.5l-25.6-25.6c-3.328-3.337-8.738-3.337-12.066,0l-28.1,28.1l-11.034-11.034   c-3.328-3.337-8.738-3.337-12.066,0L318.234,412.1c-3.337,3.337-3.337,8.73,0,12.066c1.664,1.664,3.849,2.5,6.033,2.5   s4.369-0.836,6.033-2.5l28.1-28.1l28.1,28.1c1.664,1.664,3.849,2.5,6.033,2.5s4.369-0.836,6.033-2.5   c3.337-3.337,3.337-8.73,0-12.066l-11.034-11.034L409.6,379l19.567,19.567c1.664,1.664,3.849,2.5,6.033,2.5s4.369-0.836,6.033-2.5   C444.57,395.23,444.57,389.837,441.233,386.5z" data-original="#FFFFFF"/>
	<polygon style="fill:#FFFFFF;" points="358.4,187.733 358.4,256 418.133,221.867  " data-original="#FFFFFF"/>
</g><g>
	<path style="fill:#008DE5;" d="M196.267,290.133h-128v-28.851c0-12.339,10.01-22.349,22.349-22.349h83.302   c12.339,0,22.349,10.01,22.349,22.349V290.133z" data-original="#008DE5"/>
	<circle style="fill:#008DE5;" cx="132.267" cy="174.933" r="29.867" data-original="#008DE5"/>
</g><path style="fill:#00B890;" d="M170.667,469.333H102.4c-9.429,0-17.067-7.637-17.067-17.067l0,0c0-9.429,7.637-17.067,17.067-17.067  h68.267c9.429,0,17.067,7.637,17.067,17.067l0,0C187.733,461.696,180.096,469.333,170.667,469.333z" data-original="#00B890" class=""/><g>
	<path style="fill:#BDC3C7;" d="M187.733,366.933h-102.4c-4.71,0-8.533-3.814-8.533-8.533c0-4.719,3.823-8.533,8.533-8.533h102.4   c4.71,0,8.533,3.814,8.533,8.533C196.267,363.119,192.444,366.933,187.733,366.933z" data-original="#BDC3C7"/>
	<path style="fill:#BDC3C7;" d="M170.667,401.067H102.4c-4.71,0-8.533-3.814-8.533-8.533S97.69,384,102.4,384h68.267   c4.71,0,8.533,3.814,8.533,8.533S175.377,401.067,170.667,401.067z" data-original="#BDC3C7"/>
	<path style="fill:#BDC3C7;" d="M170.667,332.8H102.4c-4.71,0-8.533-3.814-8.533-8.533c0-4.719,3.823-8.533,8.533-8.533h68.267   c4.71,0,8.533,3.814,8.533,8.533C179.2,328.986,175.377,332.8,170.667,332.8z" data-original="#BDC3C7"/>
</g><g>
	<path style="fill:#000000" d="M473.6,512H38.4C17.229,512,0,494.771,0,473.6V38.4C0,17.229,17.229,0,38.4,0h435.2   C494.771,0,512,17.229,512,38.4v435.2C512,494.771,494.771,512,473.6,512z M38.4,17.067c-11.759,0-21.333,9.574-21.333,21.333   v435.2c0,11.767,9.574,21.333,21.333,21.333h435.2c11.767,0,21.333-9.566,21.333-21.333V38.4c0-11.759-9.566-21.333-21.333-21.333   H38.4z" data-original="#611C90" class="active-path" data-old_color="#611C90"/>
	<path style="fill:#000000" d="M76.8,85.333H42.667c-4.71,0-8.533-3.823-8.533-8.533V42.667c0-4.71,3.823-8.533,8.533-8.533H76.8   c4.71,0,8.533,3.823,8.533,8.533V76.8C85.333,81.51,81.51,85.333,76.8,85.333z M51.2,68.267h17.067V51.2H51.2V68.267z" data-original="#611C90" class="active-path" data-old_color="#611C90"/>
	<path style="fill:#000000" d="M145.067,85.333h-34.133c-4.71,0-8.533-3.823-8.533-8.533V42.667c0-4.71,3.823-8.533,8.533-8.533   h34.133c4.71,0,8.533,3.823,8.533,8.533V76.8C153.6,81.51,149.777,85.333,145.067,85.333z M119.467,68.267h17.067V51.2h-17.067   V68.267z" data-original="#611C90" class="active-path" data-old_color="#611C90"/>
	<path style="fill:#000000" d="M213.333,85.333H179.2c-4.71,0-8.533-3.823-8.533-8.533V42.667c0-4.71,3.823-8.533,8.533-8.533   h34.133c4.71,0,8.533,3.823,8.533,8.533V76.8C221.867,81.51,218.044,85.333,213.333,85.333z M187.733,68.267H204.8V51.2h-17.067   V68.267z" data-original="#611C90" class="active-path" data-old_color="#611C90"/>
	<path style="fill:#000000" d="M503.467,119.467H8.533c-4.71,0-8.533-3.823-8.533-8.533V38.4C0,17.229,17.229,0,38.4,0h435.2   C494.771,0,512,17.229,512,38.4v72.533C512,115.644,508.186,119.467,503.467,119.467z M17.067,102.4h477.867v-64   c0-11.759-9.566-21.333-21.333-21.333H38.4c-11.759,0-21.333,9.574-21.333,21.333V102.4z" data-original="#611C90" class="active-path" data-old_color="#611C90"/>
	<path style="fill:#000000" d="M475.238,512H256c-4.71,0-8.533-3.814-8.533-8.533V110.933c0-4.71,3.823-8.533,8.533-8.533h247.467   c4.719,0,8.533,3.823,8.533,8.533v364.305C512,495.505,495.505,512,475.238,512z M264.533,494.933h210.705   c10.863,0,19.695-8.832,19.695-19.695V119.467h-230.4V494.933z" data-original="#611C90" class="active-path" data-old_color="#611C90"/>
	<path style="fill:#000000" d="M469.333,298.667h-179.2c-4.719,0-8.533-3.814-8.533-8.533V153.6c0-4.71,3.814-8.533,8.533-8.533   h179.2c4.719,0,8.533,3.823,8.533,8.533v136.533C477.867,294.852,474.052,298.667,469.333,298.667z M298.667,281.6H460.8V162.133   H298.667V281.6z" data-original="#611C90" class="active-path" data-old_color="#611C90"/>
	<path style="fill:#000000" d="M469.333,469.333h-179.2c-4.719,0-8.533-3.814-8.533-8.533V324.267c0-4.719,3.814-8.533,8.533-8.533   h179.2c4.719,0,8.533,3.814,8.533,8.533V460.8C477.867,465.519,474.052,469.333,469.333,469.333z M298.667,452.267H460.8V332.8   H298.667V452.267z" data-original="#611C90" class="active-path" data-old_color="#611C90"/>
	<path style="fill:#000000" d="M324.267,426.667c-2.185,0-4.369-0.836-6.033-2.5c-3.337-3.337-3.337-8.73,0-12.066l34.133-34.133   c3.337-3.337,8.73-3.337,12.066,0c3.337,3.337,3.337,8.73,0,12.066L330.3,424.166C328.636,425.83,326.451,426.667,324.267,426.667z   " data-original="#611C90" class="active-path" data-old_color="#611C90"/>
	<path style="fill:#000000" d="M392.533,426.667c-2.185,0-4.369-0.836-6.033-2.5l-34.133-34.133c-3.337-3.337-3.337-8.73,0-12.066   s8.73-3.337,12.066,0l34.133,34.133c3.337,3.337,3.337,8.73,0,12.066C396.902,425.83,394.718,426.667,392.533,426.667z" data-original="#611C90" class="active-path" data-old_color="#611C90"/>
	<path style="fill:#000000" d="M375.467,409.6c-2.185,0-4.369-0.836-6.033-2.5c-3.337-3.337-3.337-8.73,0-12.066l34.133-34.133   c3.337-3.337,8.73-3.337,12.066,0c3.337,3.337,3.337,8.73,0,12.066L381.5,407.1C379.836,408.764,377.651,409.6,375.467,409.6z" data-original="#611C90" class="active-path" data-old_color="#611C90"/>
	<path style="fill:#000000" d="M435.2,401.067c-2.185,0-4.369-0.836-6.033-2.5l-25.6-25.6c-3.337-3.337-3.337-8.73,0-12.066   c3.337-3.337,8.73-3.337,12.066,0l25.6,25.6c3.337,3.337,3.337,8.73,0,12.066C439.569,400.23,437.385,401.067,435.2,401.067z" data-original="#611C90" class="active-path" data-old_color="#611C90"/>
	<path style="fill:#000000" d="M358.4,264.533c-1.485,0-2.961-0.384-4.284-1.152c-2.637-1.527-4.25-4.343-4.25-7.381v-68.267   c0-3.038,1.613-5.854,4.25-7.381c2.628-1.536,5.871-1.545,8.516-0.026l59.733,34.133c2.662,1.519,4.301,4.343,4.301,7.407   s-1.638,5.888-4.301,7.407l-59.733,34.133C361.327,264.158,359.859,264.533,358.4,264.533z M366.933,202.436v38.861l33.997-19.43   L366.933,202.436z" data-original="#611C90" class="active-path" data-old_color="#611C90"/>
	<path style="fill:#000000" d="M196.267,298.667h-128c-4.71,0-8.533-3.814-8.533-8.533v-28.851   c0-17.024,13.858-30.882,30.882-30.882h83.302c17.024,0,30.882,13.858,30.882,30.882v28.851   C204.8,294.852,200.977,298.667,196.267,298.667z M76.8,281.6h110.933v-20.318c0-7.612-6.204-13.815-13.815-13.815H90.615   c-7.612,0-13.815,6.204-13.815,13.815V281.6z" data-original="#611C90" class="active-path" data-old_color="#611C90"/>
	<path style="fill:#000000" d="M132.267,213.333c-21.171,0-38.4-17.229-38.4-38.4s17.229-38.4,38.4-38.4s38.4,17.229,38.4,38.4   S153.438,213.333,132.267,213.333z M132.267,153.6c-11.759,0-21.333,9.574-21.333,21.333c0,11.759,9.574,21.333,21.333,21.333   c11.759,0,21.333-9.574,21.333-21.333C153.6,163.174,144.026,153.6,132.267,153.6z" data-original="#611C90" class="active-path" data-old_color="#611C90"/>
	<path style="fill:#000000" d="M170.667,477.867H102.4c-14.114,0-25.6-11.486-25.6-25.6s11.486-25.6,25.6-25.6h68.267   c14.114,0,25.6,11.486,25.6,25.6S184.781,477.867,170.667,477.867z M102.4,443.733c-4.702,0-8.533,3.823-8.533,8.533   s3.831,8.533,8.533,8.533h68.267c4.702,0,8.533-3.823,8.533-8.533s-3.831-8.533-8.533-8.533H102.4z" data-original="#611C90" class="active-path" data-old_color="#611C90"/>
	<path style="fill:#000000" d="M187.733,366.933h-102.4c-4.71,0-8.533-3.814-8.533-8.533c0-4.719,3.823-8.533,8.533-8.533h102.4   c4.71,0,8.533,3.814,8.533,8.533C196.267,363.119,192.444,366.933,187.733,366.933z" data-original="#611C90" class="active-path" data-old_color="#611C90"/>
	<path style="fill:#000000" d="M170.667,401.067H102.4c-4.71,0-8.533-3.814-8.533-8.533S97.69,384,102.4,384h68.267   c4.71,0,8.533,3.814,8.533,8.533S175.377,401.067,170.667,401.067z" data-original="#611C90" class="active-path" data-old_color="#611C90"/>
	<path style="fill:#000000" d="M170.667,332.8H102.4c-4.71,0-8.533-3.814-8.533-8.533c0-4.719,3.823-8.533,8.533-8.533h68.267   c4.71,0,8.533,3.814,8.533,8.533C179.2,328.986,175.377,332.8,170.667,332.8z" data-original="#611C90" class="active-path" data-old_color="#611C90"/>
</g></g> </svg>
